<svg xmlns="http://www.w3.org/2000/svg" viewBox="0 0 44.53 60.52"><title>Asset 9</title><g id="Layer_2" data-name="Layer 2"><g id="Layer_1-2" data-name="Layer 1"><path d="M44.52,2.7A3,3,0,0,0,41.33,0a31.7,31.7,0,0,0-6.95,1.38c-.57.17-1.13.4-1.69.6s-1.11.46-1.65.73a25.24,25.24,0,0,0-3.16,1.8,24.71,24.71,0,0,0-7.48,7.85c-.1.16-.19.32-.28.49a120.94,120.94,0,0,0-10,18.68C4.85,42.47,1.33,52.51.31,55a4,4,0,0,0,3.77,5.56c1.91,0,2.93-1.8,4-5.44s5.68-14.16,5.68-14.16L20,53.82l1.61,4.07a1.42,1.42,0,0,0,.08.18A3.71,3.71,0,1,0,28.4,55l-.11-.23L20.13,36.84,33.55,34.3l.23,0,.3-.07A2.88,2.88,0,0,0,36,30.6h0l-.14-.46-.14-.41c-.09-.27-.18-.53-.28-.79q-.28-.77-.63-1.53a24.72,24.72,0,0,0-1.55-3,18.94,18.94,0,0,0-2.09-2.81,14.16,14.16,0,0,0-2-1.83,8.81,8.81,0,0,0-.77-1.42,9.85,9.85,0,0,0-1.72-1.95,11.23,11.23,0,0,0-1.25-1,.43.43,0,0,1,0-.07,17.76,17.76,0,0,1,1.6-2.26,18.65,18.65,0,0,1,4.11-3.72A18,18,0,0,1,33.59,8c.41-.22.86-.38,1.28-.57s.88-.34,1.34-.47a25,25,0,0,1,5.62-1.11h0A3,3,0,0,0,44.52,2.7ZM26.63,25.42c.06,0,.11.11.17.17a13.91,13.91,0,0,1,1.43,1.94c.31.5.59,1,.86,1.58l-6.15,1.08A37.13,37.13,0,0,1,26.63,25.42Z"/><circle cx="34.97" cy="15.13" r="5.25"/></g></g></svg>