<svg xmlns="http://www.w3.org/2000/svg" viewBox="0 0 64.7 64.7"><title>Asset 15</title><g id="Layer_2" data-name="Layer 2"><g id="Layer_1-2" data-name="Layer 1"><path d="M32.35,20.26A12.09,12.09,0,1,1,20.26,32.35,12.11,12.11,0,0,1,32.35,20.26m0-4A16.09,16.09,0,1,0,48.44,32.35,16.1,16.1,0,0,0,32.35,16.26Z"/><path d="M32.35,0h0a2,2,0,0,0-2,2V9.26a2,2,0,0,0,2,2h0a2,2,0,0,0,2-2V2a2,2,0,0,0-2-2Z"/><path d="M10.91,8.88a2,2,0,0,0-1.44,3.46l5.12,5.12a2,2,0,0,0,1.43.59,2.06,2.06,0,0,0,1.44-.59h0a2,2,0,0,0,0-2.87L12.34,9.48a2,2,0,0,0-1.43-.6Z"/><path d="M9.26,30.32H2a2,2,0,0,0,0,4.06H9.26a2,2,0,0,0,0-4.06Z"/><path d="M16,46.65a2.06,2.06,0,0,0-1.43.59L9.48,52.36a2,2,0,0,0,0,2.87h0a2,2,0,0,0,2.86,0l5.12-5.12a2,2,0,0,0,0-2.87A2.06,2.06,0,0,0,16,46.65Z"/><path d="M32.35,53.41h0a2,2,0,0,0-2,2v7.23a2,2,0,0,0,2,2h0a2,2,0,0,0,2-2V55.44a2,2,0,0,0-2-2Z"/><path d="M48.68,46.65a2.06,2.06,0,0,0-1.44.59,2,2,0,0,0,0,2.87l5.12,5.12a2,2,0,0,0,1.43.59,2.06,2.06,0,0,0,1.44-.59h0a2,2,0,0,0,0-2.87l-5.12-5.12a2,2,0,0,0-1.43-.59Z"/><path d="M62.67,30.32H55.44a2,2,0,0,0,0,4.06h7.23a2,2,0,0,0,0-4.06Z"/><path d="M53.79,8.88a2,2,0,0,0-1.43.6l-5.12,5.11a2,2,0,0,0,0,2.87h0a2.06,2.06,0,0,0,1.44.59,2,2,0,0,0,1.43-.59l5.12-5.12a2,2,0,0,0-1.44-3.46Z"/></g></g></svg>