<svg xmlns="http://www.w3.org/2000/svg" viewBox="0 0 27.42 50.28"><defs><style>.cls-1{fill-rule:evenodd;}</style></defs><title>miu</title><g id="Layer_2" data-name="Layer 2"><g id="Layer_1-2" data-name="Layer 1"><g id="miu"><g id="Artboard-1"><path id="device-battery-half-outline-stroke" class="cls-1" d="M22.44,4.57H5s-5,0-5,4.81V45.47c0,4.77,5,4.81,5,4.81H22.44s5,0,5-4.81V9.38c0-4.81-5-4.81-5-4.81Zm.16,2.29H4.82A2.39,2.39,0,0,0,2.28,9.28V45.57A2.45,2.45,0,0,0,4.82,48H22.6a2.45,2.45,0,0,0,2.54-2.42V9.28A2.45,2.45,0,0,0,22.6,6.86ZM9.07,3.43h9.21S18.28,0,16,0H11.43C9.14,0,9.14,3.43,9.07,3.43Zm-4.5,40v2.29H22.85V43.42Zm0-4.57v2.28H22.85V38.85Zm0-4.57v2.28H22.85V34.28Zm0-4.57V32H22.85V29.71Z"/></g></g></g></g></svg>