<svg xmlns="http://www.w3.org/2000/svg" viewBox="0 0 60.38 56.32"><title>Asset 11</title><g id="Layer_2" data-name="Layer 2"><g id="Layer_1-2" data-name="Layer 1"><path d="M14.43,29h0a1,1,0,0,1-1-1.08c.15-3.53,1.76-5.86,5.2-7.54a1,1,0,0,1,.92,1.87c-2.75,1.34-3.92,3-4,5.75A1,1,0,0,1,14.43,29Z"/><path d="M14.13,24.93A6.5,6.5,0,0,1,9.36,23.2C7,20.85,7.45,17,7.47,16.84a1,1,0,0,1,.35-.64c1.2-1,3.62-1,5.62,0,2.64,1.41,3.9,4.19,3.47,7.63a1.05,1.05,0,0,1-.87.9A13.17,13.17,0,0,1,14.13,24.93ZM9.5,17.61a5.72,5.72,0,0,0,1.32,4.12,5.06,5.06,0,0,0,4.09,1.08,4.79,4.79,0,0,0-2.45-4.73A4.29,4.29,0,0,0,9.5,17.61Z"/><path d="M14.72,56.31A14.68,14.68,0,1,1,29.09,44.77a1.13,1.13,0,0,1-.87.85c-5.84,1.21-9.62.32-11.19-.22-.3.34-.71.81-1.13,1.34a23.52,23.52,0,0,0,7.21,4.84,1.12,1.12,0,0,1,.21,1.94A14.56,14.56,0,0,1,14.72,56.31Zm0-27.18a12.46,12.46,0,1,0,0,24.92,12.33,12.33,0,0,0,5.59-1.32,24.71,24.71,0,0,1-6.72-5.14,1.13,1.13,0,0,1-.08-1.41,23.94,23.94,0,0,1,2.43-2.9,1.11,1.11,0,0,1,1.31-.21s3.41,1.64,9.77.49a11.81,11.81,0,0,0,.16-2A12.47,12.47,0,0,0,14.72,29.13ZM28,44.52h0Z"/><path d="M23.17,45.75a1.19,1.19,0,0,1-.37-.06,1.13,1.13,0,0,1-.7-1.43,8.15,8.15,0,0,0,0-5.6,1.13,1.13,0,1,1,2.05-.95,10.32,10.32,0,0,1,0,7.28A1.11,1.11,0,0,1,23.17,45.75Z"/><path d="M37,9h-.14a1.13,1.13,0,0,1-1-1.26A10.09,10.09,0,0,1,41.21.11a1.13,1.13,0,1,1,1,2A7.81,7.81,0,0,0,38.1,8,1.13,1.13,0,0,1,37,9Z"/><path d="M38.9,22.18a1,1,0,0,1-.29,0,1.12,1.12,0,0,1-.79-1.38,18.18,18.18,0,0,0,.39-4.27,5,5,0,0,0-1.44-3.55,1.14,1.14,0,0,1-.11-1.59,1.12,1.12,0,0,1,1.58-.12,7.25,7.25,0,0,1,2.22,5.23A19.21,19.21,0,0,1,40,21.34,1.12,1.12,0,0,1,38.9,22.18Z"/><path d="M47.45,32.27a1.14,1.14,0,0,1-1-.51c-.11-.17-2.74-4.2-3.76-6.3-.35-.73-.32-1.78-.22-3.9.28-6.2,0-12.28-6.2-12.6a5.44,5.44,0,0,0-4.25,1.48c-3.12,3-3.26,9.25-3.26,9.71s-.06,3-3.26,5a10.68,10.68,0,0,0-3.83,4.65,1.13,1.13,0,0,1-2.1-.82,12.89,12.89,0,0,1,4.74-5.74c2.27-1.42,2.2-2.87,2.2-2.93s0-.09,0-.11c0-.31.05-7.66,4-11.38a7.71,7.71,0,0,1,5.92-2.09c9,.46,8.56,9.89,8.33,15a14.36,14.36,0,0,0,0,2.84c.95,1.95,3.59,6,3.62,6a1.12,1.12,0,0,1-.94,1.74Z"/><path d="M34.57,56.32A31,31,0,0,1,22.2,53.64a25.23,25.23,0,0,1-8.61-6,1.13,1.13,0,0,1-.08-1.41,23.94,23.94,0,0,1,2.43-2.9,1.11,1.11,0,0,1,1.31-.21s3.67,1.76,10.51.35a37.69,37.69,0,0,0,7.87-2.63c7.4-3.32,10.85-10,12.91-14,1.15-2.21,1.74-3.35,2.78-3.55a7.65,7.65,0,0,0,0-3.57A1.12,1.12,0,0,1,52,18.43L55.56,17A1.13,1.13,0,0,1,57.1,18.1C57,22,59.23,23.3,59.32,23.35a1.15,1.15,0,0,1,.57.71,22.62,22.62,0,0,1,0,9.39h0c-1,5.25-5.75,22.42-24.7,22.85ZM15.9,46.74a23.52,23.52,0,0,0,7.21,4.84,28.3,28.3,0,0,0,12.07,2.47C52,53.67,56.54,39.22,57.72,33h0a21.69,21.69,0,0,0,.08-8,7.47,7.47,0,0,1-2.88-5.33l-1.22.49c.15,1.28.22,3.31-.59,4.42a2.06,2.06,0,0,1-1.19.81,16.85,16.85,0,0,0-1.37,2.41c-2.06,4-5.88,11.36-14,15a39.45,39.45,0,0,1-8.35,2.77c-5.83,1.21-9.62.32-11.18-.22C16.73,45.74,16.32,46.21,15.9,46.74Zm42.93-13.5h0Zm-7.1-7.77h0Z"/><path d="M34.2,51.53a1.13,1.13,0,0,1-.2-2.24c.06,0,5.72-1,8.13-2.87a1.13,1.13,0,1,1,1.36,1.8c-2.84,2.15-8.84,3.24-9.09,3.29Z"/><circle cx="21.66" cy="35.14" r="0.83"/><circle cx="45.36" cy="45.68" r="1.05"/></g></g></svg>