<svg xmlns="http://www.w3.org/2000/svg" viewBox="0 0 61.94 52.05"><title>Asset 3</title><g id="Layer_2" data-name="Layer 2"><g id="Layer_1-2" data-name="Layer 1"><path d="M27.52,36.6l-.58.4a7.41,7.41,0,0,1-8.88-.55c-.29-.26-.59-.52-.86-.8a.36.36,0,0,0-.49-.08,12.08,12.08,0,0,1-10.62-.42A10.79,10.79,0,0,1,.41,27.61,15.55,15.55,0,0,1,2.2,16.07a8.63,8.63,0,0,1,4.61-3.92A.4.4,0,0,0,7,11.87a9.64,9.64,0,0,1,7.71-7.51,6.1,6.1,0,0,1,2.37,0,.42.42,0,0,0,.48-.17,10.56,10.56,0,0,1,12.22-3,.6.6,0,0,0,.58,0,10.48,10.48,0,0,1,11.44,1,.74.74,0,0,0,.48.13A10.49,10.49,0,0,1,53.2,7.85a.76.76,0,0,0,.34.3,10.53,10.53,0,0,1,6.65,8.25,9.9,9.9,0,0,1,0,3.6.64.64,0,0,0,.08.43A10.55,10.55,0,0,1,59.49,33a.79.79,0,0,0-.15.42,9.37,9.37,0,0,1-2,5.42,9.09,9.09,0,0,1-3.24,2.38,18.21,18.21,0,0,0-2,1,6.72,6.72,0,0,0-2.86,4.26c-.31,1.27-.51,2.56-.75,3.85,0,.25-.09.5-.15.75a1.14,1.14,0,0,1-1.21,1h-10a1.25,1.25,0,0,1-1.39-1.39v-9.8q0-.42,0-.84c0-.42-.17-.55-.58-.59a6.74,6.74,0,0,0-.77,0,8.94,8.94,0,0,1-6.77-2.73Zm18.7,13c0-.09,0-.14,0-.19.25-1.24.44-2.49.75-3.71a9.57,9.57,0,0,1,4.66-6.32c.67-.37,1.37-.69,2.06-1a5.42,5.42,0,0,0,2.91-3.47A16.5,16.5,0,0,0,57,32.45a2,2,0,0,1,.48-1.18A8.14,8.14,0,0,0,58,20.89a1.56,1.56,0,0,1-.28-1.32,8.48,8.48,0,0,0-.46-5.26,8,8,0,0,0-5.06-4.53,1.09,1.09,0,0,1-.76-.59,8.09,8.09,0,0,0-9.32-4.68,1.3,1.3,0,0,1-1.21-.32,7.9,7.9,0,0,0-1.38-1,8.1,8.1,0,0,0-8.31.24,1.55,1.55,0,0,1-1.63.09A7.85,7.85,0,0,0,24,2.92,8.24,8.24,0,0,0,19.24,6.1a1.15,1.15,0,0,1-1,.6c-.44,0-.88-.09-1.32-.14a8.26,8.26,0,0,0-1.1-.08c-2.94.15-6.2,3-6.25,6.26a1.28,1.28,0,0,1-1.07,1.31,6,6,0,0,0-.64.19,6.71,6.71,0,0,0-3.61,3.34,13.55,13.55,0,0,0-1.33,9,8.65,8.65,0,0,0,3,5.3A9.51,9.51,0,0,0,12.89,34a8.06,8.06,0,0,0,3.7-1.08,1.25,1.25,0,0,1,1.78.13c.51.45,1,.91,1.46,1.39a5.11,5.11,0,0,0,6.15.37c.39-.33.8-.64,1.22-1a1.29,1.29,0,0,1,1.82.23c.27.32.52.65.81.94a6.13,6.13,0,0,0,3.83,1.81c.57.07,1.16.1,1.74.15a2.87,2.87,0,0,1,2.9,2.52,7.76,7.76,0,0,1,.1,1.37c0,2.78,0,5.57,0,8.35v.41h2.75v-.37c0-2,0-4,0-5.94a16.62,16.62,0,0,1,.2-2.54,7.9,7.9,0,0,1,5.11-6.49c.58-.23,1.15-.49,1.72-.76a4.34,4.34,0,0,0,2.34-2.33,1,1,0,0,1,.79-.6,1.31,1.31,0,0,1,1.26.47,1.17,1.17,0,0,1,.09,1.27,6.66,6.66,0,0,1-3.5,3.41c-.83.39-1.66.76-2.5,1.14a4.91,4.91,0,0,0-2.59,2.76A9,9,0,0,0,43.49,43v6.25c0,.1,0,.21,0,.33Z"/><path d="M35.34,21.2c.1.65.18,1.22.27,1.79a36.76,36.76,0,0,1,.61,4.68,9.93,9.93,0,0,1-1.12,5.21,1,1,0,0,1-1.28.48A1.14,1.14,0,0,1,33,32.1a1.58,1.58,0,0,1,.18-.5,5.32,5.32,0,0,0,.66-2.46,24.6,24.6,0,0,0-.56-5.93A10.08,10.08,0,0,1,33,19.88a3.11,3.11,0,0,1,.2-.74,1.46,1.46,0,0,1,1.9-.86,3.63,3.63,0,0,1,1.13.64,5.33,5.33,0,0,0,3.38,1.29,6.39,6.39,0,0,1,6,4.16,10.58,10.58,0,0,1,.87,4.51A1.14,1.14,0,0,1,44.93,30a4.31,4.31,0,0,0-3.93.56,1.21,1.21,0,1,1-1.38-2,6.32,6.32,0,0,1,3.72-1.24h.44l.1,0a5.92,5.92,0,0,0-2.16-4.07,2.9,2.9,0,0,0-1.44-.57A9.3,9.3,0,0,1,35.34,21.2Z"/><path d="M27.28,24.17c-.22-.39-.42-.77-.63-1.16-.48.1-.95.23-1.43.31a6.06,6.06,0,0,1-2.4-.07c-.23-.05-.3,0-.39.21a8.3,8.3,0,0,1-5.76,4.66,6.53,6.53,0,0,1-2.53.1,6.46,6.46,0,0,0-3.45.44A1.17,1.17,0,0,1,9,27.75a1.13,1.13,0,0,1,.72-1.29,7.87,7.87,0,0,1,4.33-.63,5.88,5.88,0,0,0,6.53-4.15c.32-1,.89-1.3,1.92-1a5.41,5.41,0,0,0,4.28-.36,1.25,1.25,0,0,1,1.85.72A6.77,6.77,0,0,0,30,23.55a1.14,1.14,0,0,1-.11,1.62c-.67.72-1.35,1.43-2,2.2a4.76,4.76,0,0,0-1,2.59,1.28,1.28,0,0,1-1.64,1.17,1.2,1.2,0,0,1-.85-1.32,7.82,7.82,0,0,1,1.87-4.46C26.6,24.94,26.94,24.56,27.28,24.17Z"/><path d="M50.34,19.35a10.4,10.4,0,0,1,2.09,5.78c.94.21,1.85.4,2.75.61a3.05,3.05,0,0,1,.68.28,1.12,1.12,0,0,1,.56,1.39,1.25,1.25,0,0,1-1.51.9c-.7-.2-1.4-.44-2.12-.57a6.59,6.59,0,0,0-1.6,0,1.16,1.16,0,0,1-1.27-1.19,8.53,8.53,0,0,0-2.12-6.41A1.19,1.19,0,0,1,48,18.24a8.7,8.7,0,0,0,2.21-2.32A11,11,0,0,0,51,14.09a1.19,1.19,0,0,1,1.15-.9,1.25,1.25,0,0,1,1.18,1,1.69,1.69,0,0,1,0,.59,8.25,8.25,0,0,1-2.44,4.08Z"/><path d="M41,14.39c.26-.77.47-1.53.76-2.26a7.64,7.64,0,0,1,1.56-2.36,1.2,1.2,0,1,1,1.73,1.64,6.84,6.84,0,0,0-1.75,3.76c-.06.36-.1.73-.13,1.1a1,1,0,0,1-1,.88,5.84,5.84,0,0,1-2.39-.58,8.56,8.56,0,0,1-5.11-6.48,18.73,18.73,0,0,1-.27-2.9,1.22,1.22,0,0,1,1.2-1.3,1.24,1.24,0,0,1,1.2,1.33,9.35,9.35,0,0,0,.81,4.07,5.79,5.79,0,0,0,3.13,3l.26.08Z"/><path d="M15.78,17.86a5.16,5.16,0,0,0,0-2.81,9.87,9.87,0,0,0-.58-1.57,1.21,1.21,0,0,1,.5-1.64,1.18,1.18,0,0,1,1.6.53,8.41,8.41,0,0,1,.14,7.86,1.05,1.05,0,0,1-1.12.63,1.16,1.16,0,0,1-.61-.23,3.73,3.73,0,0,0-3.05-.82,17.18,17.18,0,0,0-2.21.5,1.2,1.2,0,0,1-1.54-.74,1.13,1.13,0,0,1,.7-1.5,9.54,9.54,0,0,1,5.07-.51C15.05,17.63,15.39,17.75,15.78,17.86Z"/><path d="M25.57,9.91c-.65-.57-1.27-1.08-1.86-1.62a4,4,0,0,1-.6-.76,1.26,1.26,0,0,1,.27-1.76,1.31,1.31,0,0,1,1.71.31,15.57,15.57,0,0,0,1.5,1.43,7.29,7.29,0,0,0,1.17.71,1.27,1.27,0,0,1,.52,1.94,7.93,7.93,0,0,0-1.18,6.33,1.25,1.25,0,0,1-.72,1.6,1.2,1.2,0,0,1-1.67-.89,9.65,9.65,0,0,1-.25-2.79A10.82,10.82,0,0,1,25.57,9.91Z"/></g></g></svg>