<?xml version="1.0" encoding="utf-8"?>
<!-- Generator: Adobe Illustrator 23.0.2, SVG Export Plug-In . SVG Version: 6.00 Build 0)  -->
<svg version="1.1" id="Layer_1" xmlns="http://www.w3.org/2000/svg" xmlns:xlink="http://www.w3.org/1999/xlink" x="0px" y="0px"
	 viewBox="0 0 53.7 30.5" style="enable-background:new 0 0 53.7 30.5;" xml:space="preserve">
<title>Asset 4</title>
<g>
	<g id="Layer_1-2">
		<path d="M2,0C0.9,0,0,0.9,0,2c0,0.6,0.2,1.1,0.6,1.5L18.1,21c0.8,0.8,2.1,0.8,2.9,0l10.2-10.2l19.1,19.1c0.8,0.8,2,0.8,2.8,0
			c0.4-0.4,0.6-0.9,0.6-1.4V17.3c0-1.1-0.9-2-2-2s-2,0.9-2,2v6.4L32.6,6.5c-0.8-0.8-2-0.8-2.8,0L19.5,16.7L3.4,0.6C3,0.2,2.5,0,2,0z
			"/>
		<path d="M51.7,26.5h-11c-1.1,0-2,0.9-2,2c0,1.1,0.9,2,2,2h11c1.1,0,2-0.9,2-2C53.7,27.3,52.8,26.5,51.7,26.5z"/>
	</g>
</g>
</svg>
