<svg xmlns="http://www.w3.org/2000/svg" viewBox="0 0 51.11 51.11"><title>Asset 1</title><g id="Layer_2" data-name="Layer 2"><g id="Layer_1-2" data-name="Layer 1"><path d="M25.56,3.24A22.32,22.32,0,1,1,3.24,25.56,22.31,22.31,0,0,1,25.56,3.24m0-3.24A25.56,25.56,0,1,0,51.11,25.56,25.58,25.58,0,0,0,25.56,0Z"/><path d="M13.86,37.74c4.71-8.8,19-9.73,23.94,0C30.51,32.09,21.5,31.92,13.86,37.74Z"/><path d="M13,26c0-4,9.77-4,9.77,0C22.74,24.43,13,24.43,13,26Z"/><path d="M28.92,26c0-4,9.76-4,9.76,0C38.68,24.43,28.92,24.43,28.92,26Z"/></g></g></svg>