<svg xmlns="http://www.w3.org/2000/svg" viewBox="0 0 59.1 59.03"><title>Asset 14</title><g id="Layer_2" data-name="Layer 2"><g id="Layer_1-2" data-name="Layer 1"><path d="M48.09,1.35a.85.85,0,0,0,.08-.88A.83.83,0,0,0,47.42,0h-9V1.68h7.33l-8,10.55a.85.85,0,0,0-.08.88.83.83,0,0,0,.75.47h9.84V11.89H40ZM27.41,16.8,33,9.29a1,1,0,0,0,.08-1,1,1,0,0,0-.87-.54H24.83v2h5.41l-5.57,7.51a1,1,0,0,0,.79,1.57h7.86v-2Zm-6.91.5a1,1,0,0,0,.15-1.05,1,1,0,0,0-.89-.57H13.91v2H17.6l-3.73,4.28a1,1,0,0,0,.74,1.63h6v-2H16.77ZM4.05,50.2h0v0Zm0,0h0v0ZM56.81,27.42H55.42a2.29,2.29,0,0,0-2.29,2.29v2.88c-.14-.26-.28-.51-.43-.76-1.69-2.8-4-4.41-6.18-4.41H17.79v2c0,3,0,7.46,0,9.57a2,2,0,0,0-1.5-.68H16a5.83,5.83,0,1,0-10-5V14.61a3,3,0,0,0-6,0V56a3,3,0,1,0,6,0V50.2H53.13v6.44a2.3,2.3,0,0,0,2.29,2.29h1.39a2.3,2.3,0,0,0,2.29-2.29V29.71A2.29,2.29,0,0,0,56.81,27.42ZM4.06,48.72V50.2h0V56a1,1,0,0,1-.09.41,1,1,0,0,1-.55.55,1.11,1.11,0,0,1-.41.08,1.06,1.06,0,0,1-.4-.08l-.18-.09a1,1,0,0,1-.19-.17,1,1,0,0,1-.15-.2A1.06,1.06,0,0,1,2,56V14.61a1,1,0,0,1,.12-.5,1,1,0,0,1,.34-.37.77.77,0,0,1,.18-.1,1.06,1.06,0,0,1,.4-.08,1.11,1.11,0,0,1,.41.08A1,1,0,0,1,4,14.2a.91.91,0,0,1,.09.41ZM8,33.54a3.93,3.93,0,0,1,.58-1.38A3.29,3.29,0,0,1,9,31.59a3.83,3.83,0,0,1,2.73-1.14,3.87,3.87,0,0,1,2.74,1.14,3.85,3.85,0,0,1,1.05,1.95,4,4,0,0,1,.08.78,4,4,0,0,1-.08.78A3.69,3.69,0,0,1,15,36.48a4.41,4.41,0,0,1-.47.58,3.86,3.86,0,0,1-2.74,1.13A3.87,3.87,0,0,1,8,35.1a4,4,0,0,1-.08-.78A4,4,0,0,1,8,33.54ZM6,35.33a5.84,5.84,0,0,0,1.51,3A2.93,2.93,0,0,0,6,39.11Zm47.1,12.91H6l0-6a1,1,0,0,0,1-1,1,1,0,0,1,1-1h8.25s0,0,0,0a1.92,1.92,0,0,0,.83,1.61,2,2,0,0,0,1.14.36h34.8v6Zm-33.36-8c0-.15,0-10.87,0-10.87H46.53c3.2,0,6.59,5.62,6.59,10.87ZM57.14,56.64a.31.31,0,0,1,0,.13.31.31,0,0,1-.17.17l-.13,0H55.42a.31.31,0,0,1-.32-.32V29.71a.42.42,0,0,1,0-.16.4.4,0,0,1,.15-.14.28.28,0,0,1,.13,0h1.39a.28.28,0,0,1,.13,0,.32.32,0,0,1,.2.3V56.64Z"/></g></g></svg>