<svg xmlns="http://www.w3.org/2000/svg" viewBox="0 0 30.52 69.78"><title>Asset 8</title><g id="Layer_2" data-name="Layer 2"><g id="Layer_1-2" data-name="Layer 1"><path d="M30.5,46.29a4.83,4.83,0,0,0-1.86-3.82,4.82,4.82,0,0,0-.21-7.79,5.33,5.33,0,0,0,2-4.23V20.27L20.65,7.51H22.8V0H7.65V7.51H9.94L0,20.27V30.45a5.43,5.43,0,0,0,2.09,4.24,4.84,4.84,0,0,0-.16,7.78,4.86,4.86,0,0,0,.16,7.78A5.43,5.43,0,0,0,0,54.49v8.74a5.52,5.52,0,0,0,5.46,5.46h5.46V68.6a5.42,5.42,0,0,0,3.28,1.18h2.19a5.39,5.39,0,0,0,3.27-1.18v.09h5.47a5.4,5.4,0,0,0,5.32-5.46V54.49a5.37,5.37,0,0,0-2-4.24A4.86,4.86,0,0,0,30.5,46.29ZM9.7,5.46V2.05H20.76V5.46Zm2.82,2.05h5.55l9.35,12.15H3.17ZM25.67,43.56a2.8,2.8,0,0,1,0,5.6H22.94v2.05h2.19a3.23,3.23,0,0,1,3.27,3.27v8.74a3.35,3.35,0,0,1-3.27,3.42H21.29a6.32,6.32,0,0,0,.49-2.32H19.73a3.41,3.41,0,0,1-3.34,3.41H14.2a3.41,3.41,0,0,1-3.34-3.41h-2a6.32,6.32,0,0,0,.49,2.32H5.46a3.47,3.47,0,0,1-3.41-3.42V54.48a3.35,3.35,0,0,1,3.41-3.27H16.39V49.16H4.92a2.8,2.8,0,0,1,0-5.6H16.39V41.51H4.92a2.8,2.8,0,1,1,0-5.59H16.39V33.87H5.46a3.47,3.47,0,0,1-3.41-3.42V21.71H28.4v8.74a3.35,3.35,0,0,1-3.27,3.42H22.94v2.05h2.73a2.8,2.8,0,1,1,0,5.59H22.94v2.05Z"/><rect x="7.65" y="15.29" width="2.18" height="2.05"/><rect x="9.83" y="13.11" width="2.18" height="2.05"/><rect x="18.57" y="41.51" width="2.18" height="2.05"/><rect x="18.57" y="33.87" width="2.18" height="2.05"/><rect x="18.57" y="49.16" width="2.18" height="2.05"/></g></g></svg>