<svg xmlns="http://www.w3.org/2000/svg" viewBox="0 0 48.96 48.96"><title>Asset 16</title><g id="Layer_2" data-name="Layer 2"><g id="Layer_1-2" data-name="Layer 1"><path d="M40.41,7.2a1,1,0,0,0,0,1.36,1,1,0,0,0,1.35,0,1,1,0,0,0,0-1.36A1,1,0,0,0,40.41,7.2Z"/><path d="M40.41,0C34.77.23,27.94,2.89,22.49,7.65a10.53,10.53,0,0,0-9.7,2.83,2.87,2.87,0,0,0,0,4.06l3.11,3.11a49.8,49.8,0,0,0-2.39,14.81A10.54,10.54,0,0,0,.28,33.81a1,1,0,0,0,0,1.35,10.54,10.54,0,0,0,11.09,2.43A10.54,10.54,0,0,0,13.8,48.68a.94.94,0,0,0,.68.28.92.92,0,0,0,.67-.28A10.52,10.52,0,0,0,16.5,35.46a49.93,49.93,0,0,0,14.82-2.4l3.11,3.11a2.86,2.86,0,0,0,4,0,10.56,10.56,0,0,0,2.84-9.7c4.18-4.79,7.41-11.57,7.63-18,.1-2.89-.59-5.36-1.84-6.61S43.34-.1,40.41,0ZM14.14,11.83a8.67,8.67,0,0,1,6.57-2.5,20.88,20.88,0,0,0-4.06,6.36l-2.51-2.5A1,1,0,0,1,14.14,11.83ZM2.39,34.49a8.59,8.59,0,0,1,10.65,0,8.63,8.63,0,0,1-10.65,0ZM14.48,46.57a8.59,8.59,0,0,1,0-10.65,8.63,8.63,0,0,1,0,10.65ZM37.13,34.82a1,1,0,0,1-1.35,0l-2.51-2.51a20.75,20.75,0,0,0,6.37-4.06A8.62,8.62,0,0,1,37.13,34.82ZM47,8.39A25.12,25.12,0,0,1,45,17a10.39,10.39,0,0,1-8.07-1.45,1,1,0,0,0-1,1.61A12.46,12.46,0,0,0,44,19.09a30,30,0,0,1-4.47,6.48h0q-.53.59-1.08,1.14C33.19,32,22.91,33.58,15.42,33.55c0-7.49,1.54-17.77,6.84-23.07.37-.37.75-.73,1.13-1.07a30.22,30.22,0,0,1,6.48-4.48,12.26,12.26,0,0,0,.84,6,1,1,0,0,0,1.77-.71A10.28,10.28,0,0,1,32,4a25.12,25.12,0,0,1,8.5-2c2.66-.1,4.57.57,5.28,1.28S47.13,5.78,47,8.39Z"/><path d="M32.88,13.13a1,1,0,1,0,1.36,0A1,1,0,0,0,32.88,13.13Z"/></g></g></svg>