<svg xmlns="http://www.w3.org/2000/svg" viewBox="0 0 39.05 53.94"><defs><style>.cls-1{fill:#fff;}</style></defs><title>Asset 10</title><g id="Layer_2" data-name="Layer 2"><g id="Layer_1-2" data-name="Layer 1"><path d="M8.9,22.27a40,40,0,0,0,1.28,6.88V51.57a2.14,2.14,0,0,1-2.44,2.36A2.14,2.14,0,0,1,5.3,51.57V29.15a39.08,39.08,0,0,0,1.28-6.88,3.67,3.67,0,0,0-.89-2.78C.59,17.44-.1,11,0,9.16.55-.23,7.74,0,7.74,0s7.19-.23,7.73,9.16c.11,1.82-.58,8.28-5.68,10.33A3.67,3.67,0,0,0,8.9,22.27Z"/><path class="cls-1" d="M3.25,5.69c-.78,5,.16,8.91,2.36,11.93C1.72,15,.87,9.89,3.25,5.69Z"/><path d="M25.25,23.33c0,3.55.85,4.79.85,5.55V51.13a2.28,2.28,0,1,1-4.53,0V28.88c0-.76.84-2,.84-5.55,0-5-4.63-5.88-4.36-9.65.41-5.76,1.34-12.6,1.34-12.6H20.8c.05,0-.2,14.11-.2,14.11H22V1.08h1.28V15.24h1V1.08h1.28V15.19h1.44s-.26-14.11-.2-14.11h1.4s.94,6.84,1.35,12.6C29.89,17.45,25.25,18.31,25.25,23.33Z"/><path d="M36.86,53.7a2.23,2.23,0,0,0,2.19-2.47V.26H38C33.56,5,32.3,16.1,32.11,29.46a3.37,3.37,0,0,1,3,3.3,6.69,6.69,0,0,1-.78,3.69S34.6,51,34.6,52,35.58,53.7,36.86,53.7Z"/></g></g></svg>