<svg xmlns="http://www.w3.org/2000/svg" viewBox="0 0 44.08 52.35"><title>Asset 13</title><g id="Layer_2" data-name="Layer 2"><g id="Layer_1-2" data-name="Layer 1"><path d="M44.08,17.67a7.07,7.07,0,1,0-8.68,7v12.9c0,8.55-5.65,11.58-10.48,11.58A9.05,9.05,0,0,1,18,46.16a13.28,13.28,0,0,1-3-9.28,15.56,15.56,0,0,0,9.81-5.21c1.52-1.77,2.27-3.56,2.11-5.05V9.88A8.16,8.16,0,0,0,22,2.36a3.3,3.3,0,0,0-6.46,1,3.32,3.32,0,0,0,3.31,3.33,3.27,3.27,0,0,0,2.41-1,4.92,4.92,0,0,1,2.45,4.26V26.72a.93.93,0,0,0,0,.23,4.62,4.62,0,0,1-1.34,2.59,12.12,12.12,0,0,1-8.92,4.17,12.1,12.1,0,0,1-8.9-4.12A4.56,4.56,0,0,1,3.23,27a2,2,0,0,0,0-.23V9.88A4.9,4.9,0,0,1,5.7,5.62a3.27,3.27,0,0,0,2.41,1,3.32,3.32,0,0,0,3.3-3.33A3.3,3.3,0,0,0,5,2.36,8.18,8.18,0,0,0,0,9.88V26.62c-.16,1.5.59,3.31,2.12,5.1a15.33,15.33,0,0,0,4.68,3.63,14.8,14.8,0,0,0,5,1.52c-.07,4.63,1.28,8.67,3.86,11.5a12.15,12.15,0,0,0,9.26,4,13.93,13.93,0,0,0,9-3.29c2.12-1.84,4.66-5.35,4.66-11.54V24.61A7.12,7.12,0,0,0,44.08,17.67ZM37,21.55a3.88,3.88,0,1,1,3.84-3.88A3.86,3.86,0,0,1,37,21.55Z"/></g></g></svg>